# AST/ASF file generated using VICON BodyLanguage
# -----------------------------------------------
:version 1.10
:name VICON
:units
  mass 1.0
  length 0.45
  angle deg
:documentation
   .ast/.asf automatically generated from VICON data using
   VICON BodyBuilder and BodyLanguage model FoxedUp or BRILLIANT.MOD
:root
   order TX TY TZ RX RY RZ
   axis XYZ
   position 0 0 0  
   orientation 0 0 0 
:bonedata
  begin
     id 1 
     name lhipjoint
     direction 0.707368 -0.647095 0.284426 
     length 2.60678 
     axis 0 0 0  XYZ
  end
  begin
     id 2 
     name lfemur
     direction 0.34202 -0.939693 0  
     length 6.63812  
     axis 0 0 20  XYZ
    dof rx ry rz
    limits (-160.0 20.0)
           (-70.0 70.0)
           (-60.0 70.0)
  end
  begin
     id 3 
     name ltibia
     direction 0.34202 -0.939693 0   
     length 7.51178   
     axis 0 0 20   XYZ
    dof rx
    limits (-10.0 170.0)
  end
  begin
     id 4 
     name lfoot
     direction 0.121251 -0.333133 0.935051   
     length 1.83716   
     axis -90 7.62852e-016 20   XYZ
    dof rx rz
    limits (-45.0 90.0)
           (-70.0 20.0)
  end
  begin
     id 5 
     name ltoes
     direction 1.53611e-011 -4.21962e-011 1   
     length 0.916133   
     axis -90 7.62852e-016 20   XYZ
    dof rx
    limits (-90.0 20.0)
  end
  begin
     id 6 
     name rhipjoint
     direction -0.692419 -0.660507 0.290321   
     length 2.55385  
     axis 0 0 0  XYZ 
  end
  begin
     id 7 
     name rfemur
     direction -0.34202 -0.939693 0   
     length 7.29079   
     axis 0 0 -20   XYZ
    dof rx ry rz
    limits (-160.0 20.0)
           (-70.0 70.0)
           (-70.0 60.0)
  end
  begin
     id 8 
     name rtibia
     direction -0.34202 -0.939693 0   
     length 7.47143   
     axis 0 0 -20   XYZ
    dof rx
    limits (-10.0 170.0)
 end
 begin
     id 9 
     name rfoot
     direction -0.119907 -0.329441 0.936532   
     length 1.79439  
     axis -90 -7.62852e-016 -20   XYZ
    dof rx rz
    limits (-45.0 90.0)
           (-20.0 70.0)
  end
  begin
     id 10 
     name rtoes
     direction -1.53571e-011 -4.21961e-011 1   
     length 0.896039   
     axis -90 -7.62852e-016 -20   XYZ
    dof rx
    limits (-90.0 20.0)
  end
  begin
     id 11 
     name lowerback
     direction 0.0367721 0.992912 -0.113016   
     length 1.73542   
     axis 0 0 0   XYZ
    dof rx ry rz
    limits (-20.0 45.0)
           (-30.0 30.0)
           (-30.0 30.0)
  end
  begin
     id 12 
     name upperback
     direction -0.000314626 0.990678 0.136227   
     length 1.7514   
     axis 0 0 0   XYZ
    dof rx ry rz
    limits (-20.0 45.0)
           (-30.0 30.0)
           (-30.0 30.0)
  end
  begin
     id 13 
     name thorax
     direction -0.0226159 0.981151 0.191917   
     length 1.71471   
     axis 0 0 0   XYZ
    dof rx ry rz
    limits (-20.0 45.0)
           (-30.0 30.0)
           (-30.0 30.0)
  end
  begin
     id 14 
     name lowerneck
     direction 0.0219333 0.998071 0.0580739   
     length 1.65882   
     axis 0 0 0   XYZ
    dof rx ry rz
    limits (-20.0 45.0)
           (-30.0 30.0)
           (-30.0 30.0)
  end
  begin
     id 15 
     name upperneck
     direction 0.0384529 0.980058 -0.194957   
     length 1.6612   
     axis 0 0 0   XYZ
    dof rx ry rz
    limits (-20.0 45.0)
           (-30.0 30.0)
           (-30.0 30.0)
  end
  begin
     id 16
     name head
     direction 0.00592123 0.997421 -0.0715234  
     length 1.68077  
     axis 0 0 0   XYZ
    dof rx ry rz
    limits (-20.0 45.0)
           (-30.0 30.0)
           (-30.0 30.0)
  end
  begin
     id 17 
     name lclavicle
     direction 0.904803 0.417826 0.0821728  
     length 3.42227  
     axis 0 0 0   XYZ
    dof ry rz
    limits (-20.0 10.0)
           (0.0 20.0)
  end
  begin
     id 18 
     name lhumerus
     direction 1 -4.48965e-011 -2.68786e-027   
     length 5.11878   
     axis -180 -30 -90   XYZ
    dof rx ry rz
    limits (-60.0 90.0)
           (-90.0 90.0)
           (-90.0 90.0)
  end
  begin
     id 19
     name lradius
     direction 1 -4.48965e-011 2.61168e-028   
     length 3.59971   
     axis -180 -30 -90   XYZ
    dof rx
    limits (-10.0 170.0)
  end
  begin
     id 20
     name lwrist
     direction 1 -4.48965e-011 1.58672e-027   
     length 1.79985   
     axis -1.65735e-015 90 90   XYZ
    dof ry
    limits (-180.0 0.0)
 end
  begin
     id 21 
     name lhand
     direction 1 -4.48942e-011 3.17344e-027   
     length 0.62877   
     axis -2.02492e-015 90 90   XYZ
    dof rx rz
    limits (-90.0 90.0)
           (-45.0 45.0)
  end
  begin
     id 22 
     name lfingers
     direction 1 -4.49011e-011 6.34687e-027   
     length 0.506931   
     axis -4.04985e-015 90 90   XYZ
    dof rx
    limits (0.0 90.0)
  end
  begin
     id 23
     name lthumb
     direction 0.707107 -6.34982e-011 0.707107   
     length 0.727854   
     axis -90 45 2.85299e-015   XYZ
    dof rx rz
    limits (-45.0 45.0)
           (-45.0 45.0)
  end
  begin
     id 24 
     name rclavicle
     direction -0.945647 0.32488 0.0143075   
     length 3.52737  
     axis 0 0 0   XYZ 
    dof ry rz
    limits (-10.0 20.0)
           (-20.0 0.0)
  end
  begin
     id 25 
     name rhumerus
     direction -1 -4.48962e-011 1.92182e-027  
     length 5.4902   
     axis -180 30 90   XYZ
    dof rx ry rz
    limits (-90.0 60.0)
           (-90.0 90.0)
           (-90.0 90.0)
  end
  begin
     id 26 
     name rradius
     direction -1 -4.48967e-011 -5.97193e-028   
     length 3.20659   
     axis -180 30 90   XYZ
    dof rx
    limits (-10.0 170.0)
  end
  begin
     id 27 
     name rwrist
     direction -1 -4.48964e-011 1.58672e-027   
     length 1.6033   
     axis -1.65735e-015 -90 -90   XYZ
    dof ry
    limits (-180.0 0.0)
  end
  begin
     id 28
     name rhand
     direction -1 -4.49006e-011 3.17344e-027   
     length 0.691885   
     axis -2.02492e-015 -90 -90   XYZ
    dof rx rz
    limits (-90.0 90.0)
           (-45.0 45.0)
  end
  begin
     id 29
     name rfingers
     direction -1 -4.48908e-011 6.34687e-027   
     length 0.557815   
     axis -4.04985e-015 -90 -90   XYZ
    dof rx
    limits (0.0 90.0)
  end
  begin
     id 30
     name rthumb
     direction -0.707107 -6.34999e-011 0.707107   
     length 0.800915   
     axis -90 -45 -2.85299e-015   XYZ
    dof rx rz
    limits (-45.0 45.0)
           (-45.0 45.0)
  end
:hierarchy
  begin
    root lhipjoint rhipjoint lowerback
    lhipjoint lfemur
    lfemur ltibia
    ltibia lfoot
    lfoot ltoes
    rhipjoint rfemur
    rfemur rtibia
    rtibia rfoot
    rfoot rtoes
    lowerback upperback
    upperback thorax
    thorax lowerneck lclavicle rclavicle
    lowerneck upperneck
    upperneck head
    lclavicle lhumerus
    lhumerus lradius
    lradius lwrist
    lwrist lhand lthumb
    lhand lfingers
    rclavicle rhumerus
    rhumerus rradius
    rradius rwrist
    rwrist rhand rthumb
    rhand rfingers
  end

#!OML:ASF I:\Actors\actors\Patient Classification 1\Patient 1\Session 1\Subject1.ASF
:FULLY-SPECIFIED
:DEGREES
22
root -0.0661843 17.5116 8.17756 10.5717 3.31244 -8.54266
lowerback -0.596367 -0.485303 3.68776
upperback -9.29717 -0.309717 2.14661
thorax -9.49978 -0.341711 0.244151
lowerneck 5.87166 -16.0782 -15.2107
upperneck 8.80816 -24.2836 18.8002
head 5.9057 -12.1362 6.65957
rclavicle 6.4605e-015 2.8625e-014
rhumerus -52.0668 -34.4698 -53.9763
rradius 23.6724
rwrist 48.4671
rhand 11.6777 -35.2523
rfingers 7.12502
rthumb 36.7158 -61.3897
lclavicle 6.4605e-015 2.8625e-014
lhumerus -43.8458 26.5518 71.2515
lradius 23.7917
lwrist -25.6937
lhand -14.245 -8.63664
lfingers 7.12502
lthumb 11.8929 21.0056
rfemur -5.72318 23.8253 24.0475
rtibia 1.95849
rfoot -13.0021 -27.46
rtoes 5.09997
lfemur -0.240321 -49.9044 -7.34328
ltibia -4.16408
lfoot -23.6662 55.0302
ltoes 13.9832
23
root -0.0565607 17.5043 8.17381 10.368 3.43316 -9.14232
lowerback -0.342159 -0.493309 4.47609
upperback -9.2647 -0.258676 2.2662
thorax -9.62878 -0.375582 -0.0679893
lowerneck 5.82268 -16.0648 -15.1684
upperneck 8.84872 -24.2672 18.8148
head 5.9201 -12.1227 6.65607
rclavicle 1.99282e-014 1.74931e-014
rhumerus -51.9579 -34.3334 -54.2731
rradius 23.8021
rwrist 48.0208
rhand 11.5764 -35.2185
rfingers 7.12502
rthumb 36.62 -61.3802
lclavicle 1.99282e-014 1.74931e-014
lhumerus -43.9074 26.5815 71.0711
lradius 23.6076
lwrist -25.9457
lhand -14.1956 -8.70324
lfingers 7.12502
lthumb 11.9405 20.9362
rfemur -5.46719 23.6772 24.8521
rtibia 1.92279
rfoot -12.8839 -27.3757
rtoes 4.70273
lfemur 0.0230512 -49.506 -6.84096
ltibia -4.29652
lfoot -23.1146 54.7309
ltoes 13.3921
24
root -0.0481729 17.5001 8.17179 10.2517 3.46663 -9.44591
lowerback -0.19257 -0.498183 4.91031
upperback -9.24092 -0.229327 2.32602
thorax -9.6995 -0.394198 -0.246228
lowerneck 5.74547 -16.0568 -15.1896
upperneck 8.92842 -24.268 18.8481
head 5.96487 -12.116 6.65966
rclavicle -2.6339e-015 1.59028e-014
rhumerus -51.7948 -34.1786 -54.6418
rradius 23.9683
rwrist 47.7082
rhand 11.5534 -35.1436
rfingers 7.12502
rthumb 36.5982 -61.3109
lclavicle -2.6339e-015 1.59028e-014
lhumerus -43.9833 26.7806 70.7834
lradius 23.3787
lwrist -26.325
lhand -14.2341 -8.54962
lfingers 7.12502
lthumb 11.9034 21.092
rfemur -5.29865 23.6403 25.2579
rtibia 1.8636
rfoot -12.7952 -27.3679
rtoes 4.38631
lfemur 0.185491 -49.2528 -6.62735
ltibia -4.3554
lfoot -22.824 54.5427
ltoes 13.0846
25
root -0.0407963 17.5001 8.17164 10.2731 3.39906 -9.41693
lowerback -0.189662 -0.489565 4.93774
upperback -9.24252 -0.216307 2.32438
thorax -9.70308 -0.390284 -0.264174
lowerneck 5.61374 -16.0701 -15.2324
upperneck 9.0624 -24.2959 18.8331
head 6.03674 -12.1191 6.64044
rclavicle 2.37051e-014 -1.70955e-014
rhumerus -51.5488 -34.0007 -55.0322
rradius 24.0873
rwrist 47.443
rhand 11.5952 -34.9143
rfingers 7.12502
rthumb 36.6377 -61.0716
lclavicle 2.37051e-014 -1.70955e-014
lhumerus -44.0701 27.0341 70.4622
lradius 23.1178
lwrist -26.8007
lhand -14.2161 -8.38694
lfingers 7.12502
lthumb 11.9207 21.2537
rfemur -5.28513 23.6883 25.1954
rtibia 1.79744
rfoot -12.7163 -27.3777
rtoes 4.18706
lfemur 0.233786 -49.3008 -6.72982
ltibia -4.3567
lfoot -22.9011 54.63
ltoes 12.9779
26
root -0.0352969 17.5013 8.17247 10.2982 3.29322 -9.33897
lowerback -0.201148 -0.4684 4.89054
upperback -9.23568 -0.193416 2.30105
thorax -9.68646 -0.376157 -0.265042
lowerneck 5.50525 -16.0861 -15.2304
upperneck 9.13244 -24.32 18.838
head 6.08133 -12.1218 6.62596
rclavicle -4.17448e-015 -5.56597e-015
rhumerus -51.2393 -33.7533 -55.5503
rradius 24.2286
rwrist 47.0513
rhand 11.6268 -34.6359
rfingers 7.12502
rthumb 36.6676 -60.7856
lclavicle -4.17448e-015 -5.56597e-015
lhumerus -44.1229 27.1765 70.182
lradius 22.8845
lwrist -27.2862
lhand -14.0309 -8.41087
lfingers 7.12502
lthumb 12.0993 21.2193
rfemur -5.29275 23.7762 25.0716
rtibia 1.76273
rfoot -12.6916 -27.3825
rtoes 4.14563
lfemur 0.359014 -49.4882 -6.93192
ltibia -4.39457
lfoot -23.149 54.8548
ltoes 12.9985
27
root -0.0307807 17.5034 8.17283 10.3014 3.1649 -9.2584
lowerback -0.177281 -0.447424 4.8343
upperback -9.22952 -0.169973 2.26298
thorax -9.69154 -0.362137 -0.276177
lowerneck 5.46454 -16.0805 -15.1829
upperneck 9.10998 -24.3087 18.8785
head 6.07856 -12.1121 6.63087
rclavicle -1.94312e-014 -2.38542e-015
rhumerus -50.9241 -33.4517 -56.1917
rradius 24.4323
rwrist 46.5831
rhand 11.5528 -34.5555
rfingers 7.12502
rthumb 36.5976 -60.7229
lclavicle -1.94312e-014 -2.38542e-015
lhumerus -44.2192 27.4043 69.8158
lradius 22.6931
lwrist -27.8562
lhand -13.9459 -8.35635
lfingers 7.12502
lthumb 12.1812 21.269
rfemur -5.29899 23.8181 24.9508
rtibia 1.76056
rfoot -12.6668 -27.3351
rtoes 4.11518
lfemur 0.504311 -49.6273 -7.15743
ltibia -4.40896
lfoot -23.5276 55.002
ltoes 13.3228
28
root -0.0258083 17.5051 8.17213 10.3113 3.04429 -9.19522
lowerback -0.145071 -0.429917 4.78729
upperback -9.24441 -0.148154 2.23786
thorax -9.72563 -0.349675 -0.277924
lowerneck 5.47854 -16.0634 -15.1264
upperneck 9.05694 -24.276 18.8856
head 6.04769 -12.0969 6.63379
rclavicle -2.00773e-014 1.98785e-014
rhumerus -50.6713 -33.2482 -56.72
rradius 24.6325
rwrist 46.2628
rhand 11.5172 -34.5474
rfingers 7.12502
rthumb 36.5639 -60.7233
lclavicle -2.00773e-014 1.98785e-014
lhumerus -44.4013 27.7467 69.3561
lradius 22.5273
lwrist -28.4003
lhand -14.007 -8.19903
lfingers 7.12502
lthumb 12.1223 21.4298
rfemur -5.33085 23.8074 24.8417
rtibia 1.77154
rfoot -12.6422 -27.2505
rtoes 4.17045
lfemur 0.596315 -49.7685 -7.34051
ltibia -4.37503
lfoot -23.9398 55.145
ltoes 13.7848
29
root -0.0248631 17.509 8.17378 10.4182 2.88235 -8.93966
lowerback -0.243201 -0.41095 4.45416
upperback -9.27792 -0.149088 2.18937
thorax -9.69816 -0.325523 -0.144935
lowerneck 5.46793 -16.0615 -15.0794
upperneck 9.05395 -24.2624 18.8369
head 6.03363 -12.0897 6.61441
rclavicle 1.32192e-014 1.27222e-014
rhumerus -50.3662 -32.9903 -57.2956
rradius 24.8292
rwrist 45.8556
rhand 11.561 -34.5816
rfingers 7.12502
rthumb 36.6054 -60.7471
lclavicle 1.32192e-014 1.27222e-014
lhumerus -44.562 28.0834 68.9061
lradius 22.3427
lwrist -28.8911
lhand -14.0408 -8.22551
lfingers 7.12502
lthumb 12.0898 21.4052
rfemur -5.47798 24.0595 24.4672
rtibia 1.81541
rfoot -12.7404 -27.3779
rtoes 4.52103
lfemur 0.535608 -50.0188 -7.62068
ltibia -4.30916
lfoot -24.4698 55.4125
ltoes 14.2353
30
root -0.0288446 17.5148 8.1786 10.6096 2.67354 -8.52455
lowerback -0.462013 -0.393364 3.86763
upperback -9.32529 -0.172677 2.11274
thorax -9.61095 -0.29272 0.0998294
lowerneck 5.35592 -16.0858 -15.0139
upperneck 9.17095 -24.2852 18.7207
head 6.06895 -12.0915 6.55441
rclavicle 1.05356e-014 1.43125e-014
rhumerus -49.9665 -32.5718 -58.0499
rradius 25.0686
rwrist 45.2429
rhand 11.6269 -34.7122
rfingers 7.12502
rthumb 36.6677 -60.8618
lclavicle 1.05356e-014 1.43125e-014
lhumerus -44.6568 28.3275 68.5266
lradius 22.1569
lwrist -29.3109
lhand -14.0622 -8.27331
lfingers 7.12502
lthumb 12.0692 21.3586
rfemur -5.73149 24.4817 23.8688
rtibia 1.88707
rfoot -12.8368 -27.6482
rtoes 4.636
lfemur 0.295143 -50.1331 -7.92118
ltibia -4.22828
lfoot -25.0359 55.5571
ltoes 14.6725
31
root -0.0253303 17.5143 8.17865 10.6067 2.59279 -8.60194
lowerback -0.433711 -0.387967 3.95789
upperback -9.34337 -0.157635 2.12832
thorax -9.64931 -0.292599 0.0657677
lowerneck 5.23915 -16.0993 -14.9856
upperneck 9.34259 -24.3085 18.6355
head 6.131 -12.0923 6.50692
rclavicle 1.13804e-014 2.38542e-014
rhumerus -49.5964 -32.2175 -58.739
rradius 25.3268
rwrist 44.7365
rhand 11.6984 -34.6835
rfingers 7.12502
rthumb 36.7354 -60.8159
lclavicle 1.13804e-014 2.38542e-014
lhumerus -44.7732 28.573 68.1336
lradius 22.0171
lwrist -29.7243
lhand -14.0116 -8.23554
lfingers 7.12502
lthumb 12.1179 21.3935
rfemur -5.76622 24.5021 23.9405
rtibia 1.95355
rfoot -12.8091 -27.5909
rtoes 4.45843
lfemur 0.302731 -49.8849 -7.85071
ltibia -4.24043
lfoot -24.9502 55.4333
ltoes 14.5651
32
root -0.0139271 17.508 8.17351 10.4073 2.64795 -9.13735
lowerback -0.165251 -0.386396 4.68809
upperback -9.3191 -0.0943614 2.22879
thorax -9.79354 -0.317902 -0.235526
lowerneck 5.18822 -16.0983 -15.0101
upperneck 9.46761 -24.3264 18.6411
head 6.18551 -12.095 6.50167
rclavicle -1.19768e-014 1.35174e-014
rhumerus -49.2284 -31.8772 -59.4092
rradius 25.5746
rwrist 44.2336
rhand 11.7462 -34.6689
rfingers 7.12502
rthumb 36.7806 -60.7898
lclavicle -1.19768e-014 1.35174e-014
lhumerus -44.8844 28.7502 67.8087
lradius 21.9219
lwrist -30.1001
lhand -13.9456 -8.28436
lfingers 7.12502
lthumb 12.1816 21.3409
rfemur -5.57258 24.1568 24.6461
rtibia 2.01836
rfoot -12.7492 -27.2442
rtoes 4.34134
lfemur 0.618266 -49.5483 -7.49617
ltibia -4.34518
lfoot -24.366 55.2635
ltoes 13.9894
